<svg version="1" xmlns="http://www.w3.org/2000/svg" width="933.333" height="933.333" viewBox="0 0 700.000000 700.000000"><path d="M164.9 88.2c-.1.2-.2 118.3-.3 262.5l-.1 262.3h33c22.5 0 33.4-.3 34.2-1.1.8-.8 1.3-.8 1.7 0 .5.7 1.3.8 2.5.2.9-.5 2.9-.8 4.4-.7 1.4.2 2.4-.1 2.1-.5-.4-.8 2.5-1.4 4.8-1 .5 0 .8-.4.8-1 0-.5.4-.8.9-.5.5.3 2.1-.1 3.7-.9 1.5-.7 3.1-1.2 3.6-.9.4.3.8.1.8-.5s1.2-1.4 2.8-1.7c1.5-.4 3.7-1.4 5-2.2 1.2-.8 2.2-1.1 2.2-.8 0 .4 1-.2 2.2-1.3 1.1-1.1 2.6-1.8 3.1-1.4.6.3.8.2.5-.3-.3-.5.1-1.6 1-2.4.9-.8 1.7-1.3 1.8-1 .1.9 11.4-8.3 11.4-9.4 0-.3 2-2.5 4.5-5 2.5-2.6 4.5-5.1 4.5-5.6 0-.6.3-1 .8-1 .4 0 1.3-1.5 2.1-3.2.8-1.8 1.9-3.6 2.4-4 .6-.3 1.2-1.5 1.3-2.5.2-.9.8-1.9 1.4-2.1.5-.2.8-.8.4-1.3-.3-.5 0-.9.6-.9s.9-.4.5-.9c-.3-.5-.1-1.2.5-1.6.6-.4.8-1.1.5-1.6-.4-.5-.1-.9.4-.9.6 0 1.4-1.8 1.7-4 .4-2.2.9-4 1.3-4 .6 0 .9-2.2 1.3-8.8.1-1.2.6-2.2 1.1-2.2.5 0 .5-.6-.2-1.3-.7-.9-.7-1.7-.1-2.3.6-.6 1.1-14.9 1.2-34.9l.3-34h37c20.4 0 37.6-.4 38.4-.9 1-.7 1.2-.6.6.4s-.4 1.1.6.4c1.5-.9 2.9-1.2 7.2-1.6 1.5-.1 2.7-.5 2.7-.9s.9-.5 2-.2 2 .1 2-.4 1.3-.9 3-.8c1.6.1 3-.2 3-.7 0-.4.7-.8 1.5-.8s1.5-.5 1.5-1.1c0-.5.5-.7 1-.4.6.3 2.4-.3 4-1.5 1.7-1.2 3-1.9 3-1.6 0 1 9.9-5.1 11.2-6.9.4-.5.8-.6.8-.1s.9-.1 2-1.4c1.1-1.3 2-2.1 2-1.8 0 .3 2.3-1.7 5.2-4.6 2.9-2.8 5.2-5.4 5-5.8-.1-.4.7-1 1.8-1.3 1.1-.4 1.8-1 1.6-1.4-.3-.4.4-1.4 1.5-2.1 1-.8 1.9-2.3 1.9-3.3s.4-1.6.9-1.3c.5.3 1.2-.5 1.5-1.9.4-1.4 1.1-2.5 1.6-2.5.6 0 1-.6 1-1.4 0-.8.7-2.1 1.5-3 .9-.8 1.5-1.7 1.4-1.8-.1-.2.5-1.9 1.3-3.8 3.1-6.8 3.7-8.8 4.1-13.2.1-1.6.5-2.8.9-2.8 1.2 0 1.8-11.7 2-44.3l.3-32.7H313l.2-40.2.3-40.3 74.5-.1c41 0 77.4-.4 81-.9 3.6-.5 6.8-.8 7.3-.7.4.1.7-.3.7-.9 0-.5.4-.8.9-.4.5.3 1.3 0 1.7-.6.4-.8.9-.7 1.5.2.6.9.9 1 .9.2 0-.6 1.8-1.4 4-1.8 2.2-.4 4-1.1 4-1.6 0-.6.4-.8.9-.4.5.3 2.5-.4 4.3-1.5 1.8-1.1 4.5-2.5 6.1-3.1 1.5-.6 2.7-1.5 2.7-2s.6-.9 1.4-.9c.8 0 1.7-.7 2-1.6.3-.8.9-1.3 1.4-1 .4.2 2.3-.9 4.1-2.5 1.9-1.6 3.8-2.9 4.3-2.9s.6-.5.3-1c-.3-.6.1-1 .9-1 .9 0 1.6-.4 1.6-.9s1.7-2.6 3.8-4.8c5.9-6.2 9.2-10.6 9.8-13 .3-1.2 1.2-2.4 2-2.7.8-.3 1.4-1.4 1.4-2.5s.5-2.3 1-2.6c.6-.4.8-1.1.5-1.6-.4-.5-.1-.9.4-.9.6 0 1.1-.9 1.1-2s.4-2 .8-2c.9 0 3.5-8.5 3.6-11.7 0-1.2.3-2 .7-1.7 1.3.7 1.6-7.6 1.8-42.4l.2-34.2H356c-105 0-191.1.1-191.1.2z"/></svg>